<svg xmlns="http://www.w3.org/2000/svg" viewBox="0 0 64 64" role="img" aria-label="$JOB">
  <rect width="64" height="64" rx="18" fill="#173A66"/>
  <path d="M33.7 13v6.1c4.5.4 8.2 2 11.1 4.8l-4.3 5.4c-2-1.8-4.3-2.9-6.8-3.3v8.2c4.7 1.1 8 2.5 9.9 4.2 2 1.7 3 4.1 3 7.2 0 3.2-1.2 5.8-3.5 7.8-2.3 2-5.5 3.2-9.4 3.5V63h-4.1v-6.2c-5.5-.5-10-2.7-13.6-6.4l4.8-5.2c2.6 2.7 5.5 4.3 8.8 4.8v-8.7c-4.4-1.1-7.5-2.4-9.4-4.1-1.9-1.7-2.9-4.1-2.9-7.2 0-3.1 1.1-5.7 3.4-7.6 2.2-1.9 5.2-3 8.9-3.3V13h4.1Zm-4.1 20.1v-7c-3 .4-4.5 1.6-4.5 3.6 0 1 .3 1.7 1 2.2.7.5 1.8.9 3.5 1.2Zm4.1 9.3v7.7c3.4-.4 5.1-1.8 5.1-4 0-1-.4-1.8-1.1-2.3-.8-.5-2.1-1-4-1.4Z" fill="#FFFFFF"/>
</svg>
